<svg xmlns="http://www.w3.org/2000/svg" xmlns:xlink="http://www.w3.org/1999/xlink" viewBox="0 0 60 60"><defs><style>.a{fill:#fff;}.b,.d{stroke-miterlimit:10;}.b{stroke-width:0.39px;fill:url(#a);stroke:url(#b);}.c{fill:url(#c);}.d{fill:none;stroke-width:0.41px;stroke:url(#d);}.e{fill:#15b0a5;}</style><linearGradient id="a" x1="29.47" y1="26.17" x2="20.56" y2="-76.57" gradientUnits="userSpaceOnUse"><stop offset="0" stop-color="#fff"/><stop offset="0.37" stop-color="#eaeaea"/><stop offset="1" stop-color="#b3b3b3"/></linearGradient><linearGradient id="b" x1="0.31" y1="30.03" x2="59.3" y2="30.03" gradientUnits="userSpaceOnUse"><stop offset="0" stop-color="#fff"/><stop offset="1" stop-color="#f2f2f2"/></linearGradient><linearGradient id="c" x1="-3884.33" y1="-1238.42" x2="-3934.47" y2="-1238.42" gradientTransform="translate(-3879.5 -1208.5) rotate(180)" gradientUnits="userSpaceOnUse"><stop offset="0" stop-color="#fff"/><stop offset="0.27" stop-color="#f6f6f6"/><stop offset="0.71" stop-color="#dfdfdf"/><stop offset="1" stop-color="#ccc"/></linearGradient><linearGradient id="d" x1="17.26" y1="8.03" x2="42.54" y2="51.81" gradientUnits="userSpaceOnUse"><stop offset="0" stop-color="#e7e6e6"/><stop offset="0.63" stop-color="#cdcccc"/></linearGradient></defs><title>Bouton OKfinal</title><rect class="a" x="-0.8" y="-0.33" width="61.24" height="60.95"/><circle class="b" cx="29.8" cy="30.03" r="29.3"/><circle class="c" cx="29.9" cy="29.92" r="25.07"/><circle class="d" cx="29.9" cy="29.92" r="25.07"/><path class="e" d="M16.23,26.34l-1.4.31a.26.26,0,0,1-.32-.21l-.1-.79a.34.34,0,0,1,.08-.29l2.3-1.93h1.13a.29.29,0,0,1,.28.3V34a.29.29,0,0,1-.28.3H16.54a.3.3,0,0,1-.31-.3Z"/><path class="e" d="M20.83,23.41a.29.29,0,0,1,.28-.3h3.8a5.6,5.6,0,1,1,0,11.2h-3.8a.29.29,0,0,1-.28-.3Zm3.89,9a3.66,3.66,0,0,0,0-7.32H22.89v7.32Z"/><path class="e" d="M33.11,26.34l-1.4.31a.26.26,0,0,1-.32-.21l-.1-.79a.34.34,0,0,1,.08-.29l2.3-1.93h1.12a.29.29,0,0,1,.29.3V34a.29.29,0,0,1-.29.3H33.42a.3.3,0,0,1-.31-.3Z"/><path class="e" d="M37.18,28.87c0-3.51,1.47-5.6,4-5.6s4,2.09,4,5.6-1.48,5.6-4,5.6S37.18,32.38,37.18,28.87Zm6,0c0-2.37-.71-3.71-1.94-3.71s-1.94,1.34-1.94,3.71.71,3.71,1.94,3.71S43.15,31.26,43.15,28.87Z"/></svg>