<svg xmlns="http://www.w3.org/2000/svg" xmlns:xlink="http://www.w3.org/1999/xlink" viewBox="0 0 60 60"><defs><style>.a{fill:#fff;}.b,.d{stroke-miterlimit:10;}.b{stroke-width:0.39px;fill:url(#a);stroke:url(#b);}.c{fill:url(#c);}.d{fill:none;stroke-width:0.39px;stroke:url(#d);}.e{fill:#433015;}</style><linearGradient id="a" x1="29.47" y1="26.17" x2="20.56" y2="-76.57" gradientUnits="userSpaceOnUse"><stop offset="0" stop-color="#fff"/><stop offset="0.37" stop-color="#eaeaea"/><stop offset="1" stop-color="#b3b3b3"/></linearGradient><linearGradient id="b" x1="0.31" y1="30.03" x2="59.3" y2="30.03" gradientUnits="userSpaceOnUse"><stop offset="0" stop-color="#fff"/><stop offset="1" stop-color="#f2f2f2"/></linearGradient><linearGradient id="c" x1="-3885.52" y1="-1718.43" x2="-3933.27" y2="-1718.43" gradientTransform="translate(-3879.5 -1688.5) rotate(180)" gradientUnits="userSpaceOnUse"><stop offset="0" stop-color="#fff"/><stop offset="0.27" stop-color="#f6f6f6"/><stop offset="0.71" stop-color="#dfdfdf"/><stop offset="1" stop-color="#ccc"/></linearGradient><linearGradient id="d" x1="17.86" y1="9.08" x2="41.93" y2="50.78" gradientUnits="userSpaceOnUse"><stop offset="0" stop-color="#e7e6e6"/><stop offset="0.63" stop-color="#cdcccc"/></linearGradient></defs><title>Bouton OKfinal</title><rect class="a" x="-0.8" y="-0.33" width="61.24" height="60.95"/><circle class="b" cx="29.8" cy="30.03" r="29.3"/><circle class="c" cx="29.9" cy="29.93" r="23.88"/><circle class="d" cx="29.9" cy="29.93" r="23.88"/><path class="e" d="M14.92,26.34l-1.41.31a.27.27,0,0,1-.32-.21l-.09-.79a.31.31,0,0,1,.08-.29l2.3-1.93H16.6a.3.3,0,0,1,.29.3V34a.3.3,0,0,1-.29.3H15.23a.3.3,0,0,1-.31-.3Z"/><path class="e" d="M19.51,23.41a.3.3,0,0,1,.29-.3h3.8a5.6,5.6,0,1,1,0,11.2H19.8a.3.3,0,0,1-.29-.3Zm3.89,9a3.66,3.66,0,0,0,0-7.32H21.58v7.32Z"/><path class="e" d="M30,33.64c1.06-1.28,3.07-3.91,4.15-5.33A3.08,3.08,0,0,0,35,26.53a1.5,1.5,0,0,0-1.69-1.45,2.64,2.64,0,0,0-1.8.94.29.29,0,0,1-.43,0l-.77-.77a.32.32,0,0,1,0-.41,4.44,4.44,0,0,1,3.15-1.57c2.29,0,3.57,1.45,3.57,3.18A4.32,4.32,0,0,1,36,29.05c-.69,1-1.91,2.48-2.76,3.55h3.46a.32.32,0,0,1,.31.3V34a.32.32,0,0,1-.31.3h-6.3A.3.3,0,0,1,30,34Z"/><path class="e" d="M38.49,28.87c0-3.51,1.47-5.6,4-5.6s4,2.09,4,5.6-1.48,5.6-4,5.6S38.49,32.38,38.49,28.87Zm6,0c0-2.37-.7-3.71-1.94-3.71s-1.93,1.34-1.93,3.71.7,3.71,1.93,3.71S44.46,31.26,44.46,28.87Z"/></svg>