<svg xmlns="http://www.w3.org/2000/svg" xmlns:xlink="http://www.w3.org/1999/xlink" viewBox="0 0 60 60"><defs><style>.a{fill:#fff;}.b,.d{stroke-miterlimit:10;}.b{stroke-width:0.39px;fill:url(#a);stroke:url(#b);}.c{fill:url(#c);}.d{fill:none;stroke-width:0.41px;stroke:url(#d);}.e{fill:#15b0a5;}</style><linearGradient id="a" x1="29.47" y1="26.17" x2="20.56" y2="-76.57" gradientUnits="userSpaceOnUse"><stop offset="0" stop-color="#fff"/><stop offset="0.37" stop-color="#eaeaea"/><stop offset="1" stop-color="#b3b3b3"/></linearGradient><linearGradient id="b" x1="0.31" y1="30.03" x2="59.3" y2="30.03" gradientUnits="userSpaceOnUse"><stop offset="0" stop-color="#fff"/><stop offset="1" stop-color="#f2f2f2"/></linearGradient><linearGradient id="c" x1="-3884.33" y1="-918.42" x2="-3934.47" y2="-918.42" gradientTransform="translate(-3879.5 -888.5) rotate(180)" gradientUnits="userSpaceOnUse"><stop offset="0" stop-color="#fff"/><stop offset="0.27" stop-color="#f6f6f6"/><stop offset="0.71" stop-color="#dfdfdf"/><stop offset="1" stop-color="#ccc"/></linearGradient><linearGradient id="d" x1="17.26" y1="8.03" x2="42.54" y2="51.81" gradientUnits="userSpaceOnUse"><stop offset="0" stop-color="#e7e6e6"/><stop offset="0.63" stop-color="#cdcccc"/></linearGradient></defs><title>Bouton OKfinal</title><rect class="a" x="-0.8" y="-0.33" width="61.24" height="60.95"/><circle class="b" cx="29.8" cy="30.03" r="29.3"/><circle class="c" cx="29.9" cy="29.92" r="25.07"/><circle class="d" cx="29.9" cy="29.92" r="25.07"/><path class="e" d="M19.38,26.34,18,26.65a.27.27,0,0,1-.32-.21l-.1-.79a.37.37,0,0,1,.08-.29l2.31-1.93h1.12a.3.3,0,0,1,.29.3V34a.3.3,0,0,1-.29.3H19.68a.3.3,0,0,1-.3-.3Z"/><path class="e" d="M24,23.41a.3.3,0,0,1,.29-.3h3.79a5.6,5.6,0,1,1,0,11.2H24.26A.3.3,0,0,1,24,34Zm3.89,9a3.66,3.66,0,0,0,0-7.32H26v7.32Z"/><path class="e" d="M36.69,28.73v-.05A3,3,0,0,1,35,26.2c0-1.78,1.54-2.93,3.47-2.93s3.54,1.15,3.54,2.93a3.07,3.07,0,0,1-1.65,2.46v.07a3.27,3.27,0,0,1,1.94,2.67c0,1.74-1.47,3.07-3.83,3.07s-3.76-1.33-3.76-3.07C34.75,30,36.24,29,36.69,28.73Zm1.86,4.11a1.55,1.55,0,0,0,1.66-1.47,1.89,1.89,0,0,0-1.66-1.7,1.9,1.9,0,0,0-1.67,1.7A1.57,1.57,0,0,0,38.55,32.84ZM40,26.28a1.46,1.46,0,0,0-2.91,0c0,.72.45,1.28,1.46,1.52C39.54,27.57,40,27,40,26.28Z"/></svg>