<svg xmlns="http://www.w3.org/2000/svg" xmlns:xlink="http://www.w3.org/1999/xlink" viewBox="0 0 60 60"><defs><style>.a{fill:#fff;}.b,.d{stroke-miterlimit:10;}.b{stroke-width:0.39px;fill:url(#a);stroke:url(#b);}.c{fill:url(#c);}.d{fill:none;stroke-width:0.41px;stroke:url(#d);}.e{fill:#15b0a5;}</style><linearGradient id="a" x1="29.47" y1="26.17" x2="20.56" y2="-76.57" gradientUnits="userSpaceOnUse"><stop offset="0" stop-color="#fff"/><stop offset="0.37" stop-color="#eaeaea"/><stop offset="1" stop-color="#b3b3b3"/></linearGradient><linearGradient id="b" x1="0.31" y1="30.03" x2="59.3" y2="30.03" gradientUnits="userSpaceOnUse"><stop offset="0" stop-color="#fff"/><stop offset="1" stop-color="#f2f2f2"/></linearGradient><linearGradient id="c" x1="-4044.27" y1="-2198.43" x2="-4094.54" y2="-2198.43" gradientTransform="translate(-4039.5 -2168.5) rotate(180)" gradientUnits="userSpaceOnUse"><stop offset="0" stop-color="#fff"/><stop offset="0.27" stop-color="#f6f6f6"/><stop offset="0.71" stop-color="#dfdfdf"/><stop offset="1" stop-color="#ccc"/></linearGradient><linearGradient id="d" x1="17.23" y1="7.98" x2="42.57" y2="51.87" gradientUnits="userSpaceOnUse"><stop offset="0" stop-color="#e7e6e6"/><stop offset="0.63" stop-color="#cdcccc"/></linearGradient></defs><title>Bouton</title><rect class="a" x="-0.8" y="-0.33" width="61.24" height="60.95"/><circle class="b" cx="29.8" cy="30.03" r="29.3"/><circle class="c" cx="29.9" cy="29.93" r="25.13"/><circle class="d" cx="29.9" cy="29.93" r="25.13"/><path class="e" d="M7,33.68c1.06-1.28,3.07-3.91,4.15-5.33A3.08,3.08,0,0,0,12,26.57a1.5,1.5,0,0,0-1.69-1.45,2.64,2.64,0,0,0-1.8.94.29.29,0,0,1-.43,0l-.77-.77a.31.31,0,0,1,0-.41,4.44,4.44,0,0,1,3.15-1.57c2.29,0,3.57,1.45,3.57,3.18a4.27,4.27,0,0,1-1.07,2.59c-.69,1-1.91,2.49-2.76,3.56h3.46a.32.32,0,0,1,.31.3v1.11a.32.32,0,0,1-.31.3H7.32a.3.3,0,0,1-.3-.3Z"/><path class="e" d="M16,23.45a.3.3,0,0,1,.29-.3H20a5.6,5.6,0,1,1,0,11.2H16.24a.3.3,0,0,1-.29-.3Zm3.89,9a3.66,3.66,0,0,0,0-7.32H18V32.4Z"/><path class="e" d="M28.24,26.38l-1.41.3a.26.26,0,0,1-.32-.2l-.1-.79a.37.37,0,0,1,.08-.29l2.31-1.93h1.12a.3.3,0,0,1,.29.3V34.05a.3.3,0,0,1-.29.3H28.54a.29.29,0,0,1-.3-.3Z"/><path class="e" d="M32.3,28.91c0-3.51,1.47-5.6,4-5.6s4,2.09,4,5.6-1.47,5.6-4,5.6S32.3,32.41,32.3,28.91Zm6,0c0-2.37-.7-3.71-1.94-3.71s-1.93,1.34-1.93,3.71.7,3.71,1.93,3.71S38.27,31.29,38.27,28.91Z"/><path class="e" d="M42,28.91c0-3.51,1.47-5.6,4-5.6s4,2.09,4,5.6-1.47,5.6-4,5.6S42,32.41,42,28.91Zm6,0c0-2.37-.71-3.71-1.94-3.71s-1.94,1.34-1.94,3.71.71,3.71,1.94,3.71S48,31.29,48,28.91Z"/></svg>