<svg xmlns="http://www.w3.org/2000/svg" xmlns:xlink="http://www.w3.org/1999/xlink" viewBox="0 0 60 60"><defs><style>.a{fill:#fff;}.b,.d{stroke-miterlimit:10;}.b{stroke-width:0.39px;fill:url(#a);stroke:url(#b);}.c{fill:url(#c);}.d{fill:none;stroke-width:0.39px;stroke:url(#d);}.e{fill:#42111d;}</style><linearGradient id="a" x1="29.47" y1="26.17" x2="20.56" y2="-76.57" gradientUnits="userSpaceOnUse"><stop offset="0" stop-color="#fff"/><stop offset="0.37" stop-color="#eaeaea"/><stop offset="1" stop-color="#b3b3b3"/></linearGradient><linearGradient id="b" x1="0.31" y1="30.03" x2="59.3" y2="30.03" gradientUnits="userSpaceOnUse"><stop offset="0" stop-color="#fff"/><stop offset="1" stop-color="#f2f2f2"/></linearGradient><linearGradient id="c" x1="-4045.52" y1="-1398.43" x2="-4093.27" y2="-1398.43" gradientTransform="translate(-4039.5 -1368.5) rotate(180)" gradientUnits="userSpaceOnUse"><stop offset="0" stop-color="#fff"/><stop offset="0.27" stop-color="#f6f6f6"/><stop offset="0.71" stop-color="#dfdfdf"/><stop offset="1" stop-color="#ccc"/></linearGradient><linearGradient id="d" x1="17.86" y1="9.08" x2="41.93" y2="50.78" gradientUnits="userSpaceOnUse"><stop offset="0" stop-color="#e7e6e6"/><stop offset="0.63" stop-color="#cdcccc"/></linearGradient></defs><title>Bouton OKfinal</title><rect class="a" x="-0.8" y="-0.33" width="61.24" height="60.95"/><circle class="b" cx="29.8" cy="30.03" r="29.3"/><circle class="c" cx="29.9" cy="29.93" r="23.88"/><circle class="d" cx="29.9" cy="29.93" r="23.88"/><path class="e" d="M14,33.64c1.05-1.28,3.07-3.91,4.14-5.33A3,3,0,0,0,19,26.53a1.51,1.51,0,0,0-1.7-1.45A2.61,2.61,0,0,0,15.5,26a.29.29,0,0,1-.43,0l-.77-.77a.31.31,0,0,1,0-.41,4.44,4.44,0,0,1,3.16-1.57c2.28,0,3.56,1.45,3.56,3.18a4.26,4.26,0,0,1-1.07,2.6c-.69,1-1.9,2.48-2.75,3.55h3.46a.31.31,0,0,1,.3.3V34a.31.31,0,0,1-.3.3H14.33A.29.29,0,0,1,14,34Z"/><path class="e" d="M23,23.41a.3.3,0,0,1,.29-.3H27a5.6,5.6,0,1,1,0,11.2h-3.8A.3.3,0,0,1,23,34Zm3.89,9a3.66,3.66,0,0,0,0-7.32H25v7.32Z"/><path class="e" d="M35.24,26.34l-1.41.31a.27.27,0,0,1-.32-.21l-.09-.79a.31.31,0,0,1,.08-.29l2.3-1.93h1.12a.3.3,0,0,1,.29.3V34a.3.3,0,0,1-.29.3H35.55a.3.3,0,0,1-.31-.3Z"/><path class="e" d="M38.87,33.64C39.93,32.36,42,29.73,43,28.31a3.08,3.08,0,0,0,.81-1.78,1.5,1.5,0,0,0-1.69-1.45,2.59,2.59,0,0,0-1.79.94.3.3,0,0,1-.44,0l-.76-.77a.31.31,0,0,1,0-.41,4.44,4.44,0,0,1,3.15-1.57c2.29,0,3.57,1.45,3.57,3.18a4.32,4.32,0,0,1-1.07,2.6c-.69,1-1.91,2.48-2.75,3.55h3.45a.32.32,0,0,1,.31.3V34a.32.32,0,0,1-.31.3h-6.3a.3.3,0,0,1-.31-.3Z"/></svg>