<svg xmlns="http://www.w3.org/2000/svg" xmlns:xlink="http://www.w3.org/1999/xlink" viewBox="0 0 60 60"><defs><style>.a{fill:#fff;}.b,.d{stroke-miterlimit:10;}.b{stroke-width:0.39px;fill:url(#a);stroke:url(#b);}.c{fill:url(#c);}.d{fill:none;stroke-width:0.39px;stroke:url(#d);}.e{fill:#460d21;}</style><linearGradient id="a" x1="29.47" y1="26.17" x2="20.56" y2="-76.57" gradientUnits="userSpaceOnUse"><stop offset="0" stop-color="#fff"/><stop offset="0.37" stop-color="#eaeaea"/><stop offset="1" stop-color="#b3b3b3"/></linearGradient><linearGradient id="b" x1="0.31" y1="30.03" x2="59.3" y2="30.03" gradientUnits="userSpaceOnUse"><stop offset="0" stop-color="#fff"/><stop offset="1" stop-color="#f2f2f2"/></linearGradient><linearGradient id="c" x1="-4046.02" y1="-438.43" x2="-4093.77" y2="-438.43" gradientTransform="translate(-4039.5 -408.5) rotate(180)" gradientUnits="userSpaceOnUse"><stop offset="0" stop-color="#fff"/><stop offset="0.27" stop-color="#f6f6f6"/><stop offset="0.71" stop-color="#dfdfdf"/><stop offset="1" stop-color="#ccc"/></linearGradient><linearGradient id="d" x1="18.35" y1="9.08" x2="42.43" y2="50.78" gradientUnits="userSpaceOnUse"><stop offset="0" stop-color="#e7e6e6"/><stop offset="0.63" stop-color="#cdcccc"/></linearGradient></defs><title>Bouton OKfinal</title><rect class="a" x="-0.8" y="-0.33" width="61.24" height="60.95"/><circle class="b" cx="29.8" cy="30.03" r="29.3"/><circle class="c" cx="30.39" cy="29.93" r="23.88"/><circle class="d" cx="30.39" cy="29.93" r="23.88"/><path class="e" d="M16.55,33.64c1.06-1.28,3.08-3.91,4.15-5.33a3,3,0,0,0,.82-1.78,1.51,1.51,0,0,0-1.7-1.45A2.59,2.59,0,0,0,18,26a.3.3,0,0,1-.44,0l-.76-.77a.31.31,0,0,1,0-.41A4.44,4.44,0,0,1,20,23.27c2.29,0,3.57,1.45,3.57,3.18a4.32,4.32,0,0,1-1.07,2.6c-.69,1-1.9,2.48-2.75,3.55h3.45a.32.32,0,0,1,.31.3V34a.32.32,0,0,1-.31.3h-6.3a.3.3,0,0,1-.31-.3Z"/><path class="e" d="M25.48,23.41a.3.3,0,0,1,.29-.3h3.79a5.6,5.6,0,1,1,0,11.2H25.77a.3.3,0,0,1-.29-.3Zm3.89,9a3.66,3.66,0,0,0,0-7.32H27.55v7.32Z"/><path class="e" d="M41.53,23.08a.32.32,0,0,1,.45.22l.37.94c.08.2,0,.37-.29.47-.75.24-3,1.31-3.52,3.07a4.26,4.26,0,0,1,1.82-.45,3.28,3.28,0,0,1,3.27,3.48A3.67,3.67,0,0,1,40,34.47c-2.51,0-3.81-2-3.81-4.42C36.2,25.38,40.15,23.52,41.53,23.08Zm.29,7.69A1.86,1.86,0,0,0,40,28.9a2,2,0,0,0-1.86,1.39c0,1.09.58,2.36,1.87,2.36A1.87,1.87,0,0,0,41.82,30.77Z"/></svg>