<svg xmlns="http://www.w3.org/2000/svg" xmlns:xlink="http://www.w3.org/1999/xlink" viewBox="0 0 60 60"><defs><style>.a{fill:#fff;}.b,.d{stroke-miterlimit:10;}.b{stroke-width:0.39px;fill:url(#a);stroke:url(#b);}.c{fill:url(#c);}.d{fill:none;stroke-width:0.41px;stroke:url(#d);}.e{fill:#15b0a5;}</style><linearGradient id="a" x1="29.47" y1="26.17" x2="20.56" y2="-76.57" gradientUnits="userSpaceOnUse"><stop offset="0" stop-color="#fff"/><stop offset="0.37" stop-color="#eaeaea"/><stop offset="1" stop-color="#b3b3b3"/></linearGradient><linearGradient id="b" x1="0.31" y1="30.03" x2="59.3" y2="30.03" gradientUnits="userSpaceOnUse"><stop offset="0" stop-color="#fff"/><stop offset="1" stop-color="#f2f2f2"/></linearGradient><linearGradient id="c" x1="-4204.27" y1="-2198.43" x2="-4254.54" y2="-2198.43" gradientTransform="translate(-4199.5 -2168.5) rotate(180)" gradientUnits="userSpaceOnUse"><stop offset="0" stop-color="#fff"/><stop offset="0.27" stop-color="#f6f6f6"/><stop offset="0.71" stop-color="#dfdfdf"/><stop offset="1" stop-color="#ccc"/></linearGradient><linearGradient id="d" x1="17.23" y1="7.98" x2="42.57" y2="51.87" gradientUnits="userSpaceOnUse"><stop offset="0" stop-color="#e7e6e6"/><stop offset="0.63" stop-color="#cdcccc"/></linearGradient></defs><title>Bouton</title><rect class="a" x="-0.8" y="-0.33" width="61.24" height="60.95"/><circle class="b" cx="29.8" cy="30.03" r="29.3"/><circle class="c" cx="29.9" cy="29.93" r="25.13"/><circle class="d" cx="29.9" cy="29.93" r="25.13"/><path class="e" d="M7,32.69l.82-.79a.26.26,0,0,1,.41,0,3.36,3.36,0,0,0,2,.87,1.63,1.63,0,0,0,1.7-1.51c0-.83-.77-1.58-2.21-1.58h-.9a.3.3,0,0,1-.3-.32v-1a.28.28,0,0,1,.3-.32h.9c1.31,0,2-.66,2-1.47a1.51,1.51,0,0,0-1.56-1.48,2.06,2.06,0,0,0-1.61.77.3.3,0,0,1-.44,0l-.78-.74a.29.29,0,0,1,0-.42,4.4,4.4,0,0,1,3-1.4c1.85,0,3.41,1.13,3.41,2.93a2.9,2.9,0,0,1-1.65,2.49v.05A3,3,0,0,1,14,31.39c0,1.81-1.48,3.12-3.69,3.12A4.17,4.17,0,0,1,7,33.09.32.32,0,0,1,7,32.69Z"/><path class="e" d="M15.92,23.45a.29.29,0,0,1,.29-.3H20a5.6,5.6,0,1,1,0,11.2H16.21a.29.29,0,0,1-.29-.3Zm3.89,9a3.66,3.66,0,0,0,0-7.32H18V32.4Z"/><path class="e" d="M28.21,26.38l-1.41.3a.26.26,0,0,1-.32-.2l-.1-.79a.34.34,0,0,1,.08-.29l2.31-1.93h1.12a.29.29,0,0,1,.28.3V34.05a.29.29,0,0,1-.28.3H28.51a.29.29,0,0,1-.3-.3Z"/><path class="e" d="M32.27,28.91c0-3.51,1.47-5.6,4-5.6s4,2.09,4,5.6-1.48,5.6-4,5.6S32.27,32.41,32.27,28.91Zm6,0c0-2.37-.7-3.71-1.94-3.71s-1.93,1.34-1.93,3.71.7,3.71,1.93,3.71S38.24,31.29,38.24,28.91Z"/><path class="e" d="M42,28.91c0-3.51,1.48-5.6,4-5.6s4,2.09,4,5.6-1.47,5.6-4,5.6S42,32.41,42,28.91Zm6,0c0-2.37-.71-3.71-1.94-3.71s-1.94,1.34-1.94,3.71.71,3.71,1.94,3.71S47.94,31.29,47.94,28.91Z"/></svg>