<svg xmlns="http://www.w3.org/2000/svg" xmlns:xlink="http://www.w3.org/1999/xlink" viewBox="0 0 60 60"><defs><style>.a{fill:#fff;}.b,.d{stroke-miterlimit:10;}.b{stroke-width:0.39px;fill:url(#a);stroke:url(#b);}.c{fill:url(#c);}.d{fill:none;stroke-width:0.41px;stroke:url(#d);}.e{fill:#15b0a5;}</style><linearGradient id="a" x1="29.47" y1="26.17" x2="20.56" y2="-76.57" gradientUnits="userSpaceOnUse"><stop offset="0" stop-color="#fff"/><stop offset="0.37" stop-color="#eaeaea"/><stop offset="1" stop-color="#b3b3b3"/></linearGradient><linearGradient id="b" x1="0.31" y1="30.03" x2="59.3" y2="30.03" gradientUnits="userSpaceOnUse"><stop offset="0" stop-color="#fff"/><stop offset="1" stop-color="#f2f2f2"/></linearGradient><linearGradient id="c" x1="-4204.33" y1="-1238.42" x2="-4254.47" y2="-1238.42" gradientTransform="translate(-4199.5 -1208.5) rotate(180)" gradientUnits="userSpaceOnUse"><stop offset="0" stop-color="#fff"/><stop offset="0.27" stop-color="#f6f6f6"/><stop offset="0.71" stop-color="#dfdfdf"/><stop offset="1" stop-color="#ccc"/></linearGradient><linearGradient id="d" x1="17.26" y1="8.03" x2="42.54" y2="51.81" gradientUnits="userSpaceOnUse"><stop offset="0" stop-color="#e7e6e6"/><stop offset="0.63" stop-color="#cdcccc"/></linearGradient></defs><title>Bouton OKfinal</title><rect class="a" x="-0.8" y="-0.33" width="61.24" height="60.95"/><circle class="b" cx="29.8" cy="30.03" r="29.3"/><circle class="c" cx="29.9" cy="29.92" r="25.07"/><circle class="d" cx="29.9" cy="29.92" r="25.07"/><path class="e" d="M13.25,32.65l.82-.79a.28.28,0,0,1,.41,0,3.32,3.32,0,0,0,2,.87,1.63,1.63,0,0,0,1.7-1.51c0-.83-.77-1.58-2.21-1.58H15a.3.3,0,0,1-.3-.32v-1A.28.28,0,0,1,15,28h.9c1.31,0,2-.66,2-1.47A1.5,1.5,0,0,0,16.37,25a2.1,2.1,0,0,0-1.62.77.28.28,0,0,1-.43,0l-.78-.74a.27.27,0,0,1,0-.41,4.36,4.36,0,0,1,3-1.41C18.4,23.27,20,24.4,20,26.2a2.9,2.9,0,0,1-1.65,2.49v0a3,3,0,0,1,1.93,2.61c0,1.81-1.47,3.12-3.68,3.12a4.15,4.15,0,0,1-3.33-1.42A.32.32,0,0,1,13.25,32.65Z"/><path class="e" d="M22.15,23.41a.29.29,0,0,1,.28-.3h3.8a5.6,5.6,0,1,1,0,11.2h-3.8a.29.29,0,0,1-.28-.3Zm3.89,9A3.66,3.66,0,0,0,26,25H24.21v7.32Z"/><path class="e" d="M34.43,26.34,33,26.65a.26.26,0,0,1-.31-.21l-.1-.79a.31.31,0,0,1,.08-.29L35,23.43h1.12a.3.3,0,0,1,.29.3V34a.3.3,0,0,1-.29.3H34.74a.3.3,0,0,1-.31-.3Z"/><path class="e" d="M38.5,28.87c0-3.51,1.47-5.6,4-5.6s4,2.09,4,5.6-1.47,5.6-4,5.6S38.5,32.38,38.5,28.87Zm6,0c0-2.37-.71-3.71-1.94-3.71s-1.94,1.34-1.94,3.71.71,3.71,1.94,3.71S44.47,31.26,44.47,28.87Z"/></svg>