<svg xmlns="http://www.w3.org/2000/svg" xmlns:xlink="http://www.w3.org/1999/xlink" viewBox="0 0 60 60"><defs><style>.a{fill:#fff;}.b,.d{stroke-miterlimit:10;}.b{stroke-width:0.39px;fill:url(#a);stroke:url(#b);}.c{fill:url(#c);}.d{fill:none;stroke-width:0.39px;stroke:url(#d);}.e{fill:#431a10;}</style><linearGradient id="a" x1="29.47" y1="26.17" x2="20.56" y2="-76.57" gradientUnits="userSpaceOnUse"><stop offset="0" stop-color="#fff"/><stop offset="0.37" stop-color="#eaeaea"/><stop offset="1" stop-color="#b3b3b3"/></linearGradient><linearGradient id="b" x1="0.31" y1="30.03" x2="59.3" y2="30.03" gradientUnits="userSpaceOnUse"><stop offset="0" stop-color="#fff"/><stop offset="1" stop-color="#f2f2f2"/></linearGradient><linearGradient id="c" x1="-4205.52" y1="-2038.43" x2="-4253.27" y2="-2038.43" gradientTransform="translate(-4199.5 -2008.5) rotate(180)" gradientUnits="userSpaceOnUse"><stop offset="0" stop-color="#fff"/><stop offset="0.27" stop-color="#f6f6f6"/><stop offset="0.71" stop-color="#dfdfdf"/><stop offset="1" stop-color="#ccc"/></linearGradient><linearGradient id="d" x1="17.86" y1="9.08" x2="41.93" y2="50.78" gradientUnits="userSpaceOnUse"><stop offset="0" stop-color="#e7e6e6"/><stop offset="0.63" stop-color="#cdcccc"/></linearGradient></defs><title>Bouton OKfinal</title><rect class="a" x="-0.8" y="-0.33" width="61.24" height="60.95"/><circle class="b" cx="29.8" cy="30.03" r="29.3"/><circle class="c" cx="29.9" cy="29.93" r="23.88"/><circle class="d" cx="29.9" cy="29.93" r="23.88"/><path class="e" d="M8.4,32.65l.82-.79a.28.28,0,0,1,.41,0,3.36,3.36,0,0,0,2,.87,1.63,1.63,0,0,0,1.7-1.51c0-.83-.77-1.58-2.21-1.58h-.9a.3.3,0,0,1-.3-.32v-1a.28.28,0,0,1,.3-.32h.9c1.31,0,2-.66,2-1.47A1.51,1.51,0,0,0,11.52,25a2.06,2.06,0,0,0-1.61.77.3.3,0,0,1-.44,0l-.78-.74a.28.28,0,0,1,0-.41,4.39,4.39,0,0,1,3-1.41c1.86,0,3.41,1.13,3.41,2.93a2.9,2.9,0,0,1-1.65,2.49v0a3,3,0,0,1,1.94,2.61c0,1.81-1.48,3.12-3.69,3.12a4.12,4.12,0,0,1-3.32-1.42A.32.32,0,0,1,8.4,32.65Z"/><path class="e" d="M17.3,23.41a.3.3,0,0,1,.29-.3h3.79a5.6,5.6,0,1,1,0,11.2H17.59a.3.3,0,0,1-.29-.3Zm3.89,9a3.66,3.66,0,0,0,0-7.32H19.36v7.32Z"/><path class="e" d="M29.59,26.34l-1.41.31a.26.26,0,0,1-.32-.21l-.1-.79a.35.35,0,0,1,.08-.28l2.31-1.94h1.12a.29.29,0,0,1,.28.3V34a.29.29,0,0,1-.28.3H29.89a.29.29,0,0,1-.3-.3Z"/><path class="e" d="M33.65,28.87c0-3.5,1.47-5.6,4-5.6s4,2.1,4,5.6-1.48,5.6-4,5.6S33.65,32.38,33.65,28.87Zm6,0c0-2.37-.7-3.71-1.94-3.71s-1.93,1.34-1.93,3.71.7,3.71,1.93,3.71S39.62,31.26,39.62,28.87Z"/><path class="e" d="M43.35,28.87c0-3.5,1.47-5.6,4-5.6s4,2.1,4,5.6-1.47,5.6-4,5.6S43.35,32.38,43.35,28.87Zm6,0c0-2.37-.71-3.71-1.94-3.71s-1.94,1.34-1.94,3.71.71,3.71,1.94,3.71S49.32,31.26,49.32,28.87Z"/></svg>