<svg xmlns="http://www.w3.org/2000/svg" xmlns:xlink="http://www.w3.org/1999/xlink" viewBox="0 0 60 60"><defs><style>.a{fill:#fff;}.b,.d{stroke-miterlimit:10;}.b{stroke-width:0.39px;fill:url(#a);stroke:url(#b);}.c{fill:url(#c);}.d{fill:none;stroke-width:0.41px;stroke:url(#d);}.e{fill:#15b0a5;}</style><linearGradient id="a" x1="29.47" y1="26.17" x2="20.56" y2="-76.57" gradientUnits="userSpaceOnUse"><stop offset="0" stop-color="#fff"/><stop offset="0.37" stop-color="#eaeaea"/><stop offset="1" stop-color="#b3b3b3"/></linearGradient><linearGradient id="b" x1="0.31" y1="30.03" x2="59.3" y2="30.03" gradientUnits="userSpaceOnUse"><stop offset="0" stop-color="#fff"/><stop offset="1" stop-color="#f2f2f2"/></linearGradient><linearGradient id="c" x1="-4204.33" y1="-1878.42" x2="-4254.47" y2="-1878.42" gradientTransform="translate(-4199.5 -1848.5) rotate(180)" gradientUnits="userSpaceOnUse"><stop offset="0" stop-color="#fff"/><stop offset="0.27" stop-color="#f6f6f6"/><stop offset="0.71" stop-color="#dfdfdf"/><stop offset="1" stop-color="#ccc"/></linearGradient><linearGradient id="d" x1="17.26" y1="8.03" x2="42.54" y2="51.81" gradientUnits="userSpaceOnUse"><stop offset="0" stop-color="#e7e6e6"/><stop offset="0.63" stop-color="#cdcccc"/></linearGradient></defs><title>Bouton OKfinal</title><rect class="a" x="-0.8" y="-0.33" width="61.24" height="60.95"/><circle class="b" cx="29.8" cy="30.03" r="29.3"/><circle class="c" cx="29.9" cy="29.92" r="25.07"/><circle class="d" cx="29.9" cy="29.92" r="25.07"/><path class="e" d="M11.94,32.65l.81-.79a.29.29,0,0,1,.42,0,3.32,3.32,0,0,0,2,.87,1.63,1.63,0,0,0,1.7-1.51c0-.83-.77-1.58-2.21-1.58h-.9a.29.29,0,0,1-.3-.32v-1a.28.28,0,0,1,.3-.32h.9c1.31,0,2-.66,2-1.47A1.5,1.5,0,0,0,15.06,25a2.08,2.08,0,0,0-1.62.77.29.29,0,0,1-.43,0l-.78-.74a.27.27,0,0,1,0-.41,4.36,4.36,0,0,1,3-1.41c1.85,0,3.4,1.13,3.4,2.93A2.89,2.89,0,0,1,17,28.69v0a3,3,0,0,1,1.93,2.61c0,1.81-1.47,3.12-3.68,3.12a4.15,4.15,0,0,1-3.33-1.42A.32.32,0,0,1,11.94,32.65Z"/><path class="e" d="M20.83,23.41a.3.3,0,0,1,.29-.3h3.8a5.6,5.6,0,1,1,0,11.2h-3.8a.3.3,0,0,1-.29-.3Zm3.89,9a3.66,3.66,0,0,0,0-7.32H22.9v7.32Z"/><path class="e" d="M31.36,33.64c1.06-1.28,3.07-3.91,4.15-5.33a3.08,3.08,0,0,0,.81-1.78,1.5,1.5,0,0,0-1.69-1.45,2.64,2.64,0,0,0-1.8.94.29.29,0,0,1-.43,0l-.77-.77a.31.31,0,0,1,0-.41,4.44,4.44,0,0,1,3.15-1.57c2.29,0,3.57,1.45,3.57,3.18a4.32,4.32,0,0,1-1.07,2.6c-.69,1-1.91,2.48-2.76,3.55H38a.32.32,0,0,1,.31.3V34a.32.32,0,0,1-.31.3h-6.3a.3.3,0,0,1-.31-.3Z"/><path class="e" d="M39.81,28.87c0-3.5,1.47-5.6,4-5.6s4,2.1,4,5.6-1.48,5.6-4,5.6S39.81,32.38,39.81,28.87Zm6,0c0-2.37-.7-3.71-1.94-3.71s-1.93,1.34-1.93,3.71.7,3.71,1.93,3.71S45.78,31.26,45.78,28.87Z"/></svg>