<svg xmlns="http://www.w3.org/2000/svg" xmlns:xlink="http://www.w3.org/1999/xlink" viewBox="0 0 60 60"><defs><style>.a{fill:#fff;}.b,.d{stroke-miterlimit:10;}.b{stroke-width:0.39px;fill:url(#a);stroke:url(#b);}.c{fill:url(#c);}.d{fill:none;stroke-width:0.41px;stroke:url(#d);}.e{fill:#15b0a5;}</style><linearGradient id="a" x1="29.47" y1="26.17" x2="20.56" y2="-76.57" gradientUnits="userSpaceOnUse"><stop offset="0" stop-color="#fff"/><stop offset="0.37" stop-color="#eaeaea"/><stop offset="1" stop-color="#b3b3b3"/></linearGradient><linearGradient id="b" x1="0.31" y1="30.03" x2="59.3" y2="30.03" gradientUnits="userSpaceOnUse"><stop offset="0" stop-color="#fff"/><stop offset="1" stop-color="#f2f2f2"/></linearGradient><linearGradient id="c" x1="-4204.33" y1="-598.42" x2="-4254.47" y2="-598.42" gradientTransform="translate(-4199.5 -568.5) rotate(180)" gradientUnits="userSpaceOnUse"><stop offset="0" stop-color="#fff"/><stop offset="0.27" stop-color="#f6f6f6"/><stop offset="0.71" stop-color="#dfdfdf"/><stop offset="1" stop-color="#ccc"/></linearGradient><linearGradient id="d" x1="17.26" y1="8.03" x2="42.54" y2="51.81" gradientUnits="userSpaceOnUse"><stop offset="0" stop-color="#e7e6e6"/><stop offset="0.63" stop-color="#cdcccc"/></linearGradient></defs><title>Bouton OKfinal</title><rect class="a" x="-0.8" y="-0.33" width="61.24" height="60.95"/><circle class="b" cx="29.8" cy="30.03" r="29.3"/><circle class="c" cx="29.9" cy="29.92" r="25.07"/><circle class="d" cx="29.9" cy="29.92" r="25.07"/><path class="e" d="M16.62,32.65l.81-.79a.29.29,0,0,1,.42,0,3.32,3.32,0,0,0,2,.87,1.63,1.63,0,0,0,1.7-1.51c0-.83-.77-1.58-2.21-1.58h-.9a.29.29,0,0,1-.3-.32v-1a.28.28,0,0,1,.3-.32h.9c1.31,0,2-.66,2-1.47A1.5,1.5,0,0,0,19.74,25a2.08,2.08,0,0,0-1.62.77.29.29,0,0,1-.43,0l-.78-.74a.27.27,0,0,1,0-.41,4.36,4.36,0,0,1,3-1.41c1.85,0,3.4,1.13,3.4,2.93a2.89,2.89,0,0,1-1.64,2.49v0a3,3,0,0,1,1.93,2.61c0,1.81-1.47,3.12-3.68,3.12a4.15,4.15,0,0,1-3.33-1.42A.31.31,0,0,1,16.62,32.65Z"/><path class="e" d="M25.51,23.41a.3.3,0,0,1,.29-.3h3.8a5.6,5.6,0,1,1,0,11.2H25.8a.3.3,0,0,1-.29-.3Zm3.89,9a3.66,3.66,0,0,0,0-7.32H27.58v7.32Z"/><path class="e" d="M41.56,23.08a.32.32,0,0,1,.45.22l.37.94c.08.2,0,.37-.29.47-.75.24-3,1.31-3.52,3.07a4.26,4.26,0,0,1,1.82-.45,3.27,3.27,0,0,1,3.27,3.48A3.67,3.67,0,0,1,40,34.47c-2.51,0-3.81-2-3.81-4.42C36.23,25.38,40.19,23.52,41.56,23.08Zm.29,7.69A1.85,1.85,0,0,0,40,28.9a2,2,0,0,0-1.86,1.39c0,1.09.58,2.36,1.88,2.36A1.87,1.87,0,0,0,41.85,30.77Z"/></svg>