<svg xmlns="http://www.w3.org/2000/svg" xmlns:xlink="http://www.w3.org/1999/xlink" viewBox="0 0 60 60"><defs><style>.a{fill:#fff;}.b,.d{stroke-miterlimit:10;}.b{stroke-width:0.39px;fill:url(#a);stroke:url(#b);}.c{fill:url(#c);}.d{fill:none;stroke-width:0.39px;stroke:url(#d);}.e{fill:#311b44;}</style><linearGradient id="a" x1="29.47" y1="26.17" x2="20.56" y2="-76.57" gradientUnits="userSpaceOnUse"><stop offset="0" stop-color="#fff"/><stop offset="0.37" stop-color="#eaeaea"/><stop offset="1" stop-color="#b3b3b3"/></linearGradient><linearGradient id="b" x1="0.31" y1="30.03" x2="59.3" y2="30.03" gradientUnits="userSpaceOnUse"><stop offset="0" stop-color="#fff"/><stop offset="1" stop-color="#f2f2f2"/></linearGradient><linearGradient id="c" x1="-4205.52" y1="-758.43" x2="-4253.27" y2="-758.43" gradientTransform="translate(-4199.5 -728.5) rotate(180)" gradientUnits="userSpaceOnUse"><stop offset="0" stop-color="#fff"/><stop offset="0.27" stop-color="#f6f6f6"/><stop offset="0.71" stop-color="#dfdfdf"/><stop offset="1" stop-color="#ccc"/></linearGradient><linearGradient id="d" x1="17.86" y1="9.08" x2="41.93" y2="50.78" gradientUnits="userSpaceOnUse"><stop offset="0" stop-color="#e7e6e6"/><stop offset="0.63" stop-color="#cdcccc"/></linearGradient></defs><title>Bouton OKfinal</title><rect class="a" x="-0.8" y="-0.33" width="61.24" height="60.95"/><circle class="b" cx="29.8" cy="30.03" r="29.3"/><circle class="c" cx="29.9" cy="29.93" r="23.88"/><circle class="d" cx="29.9" cy="29.93" r="23.88"/><path class="e" d="M16.39,32.65l.82-.79a.29.29,0,0,1,.42,0,3.28,3.28,0,0,0,2,.87,1.63,1.63,0,0,0,1.7-1.51c0-.83-.77-1.58-2.21-1.58h-.89a.3.3,0,0,1-.31-.32v-1a.28.28,0,0,1,.31-.32h.89c1.31,0,2-.66,2-1.47A1.51,1.51,0,0,0,19.51,25a2.06,2.06,0,0,0-1.61.77.29.29,0,0,1-.43,0l-.79-.74a.28.28,0,0,1,0-.41,4.39,4.39,0,0,1,3-1.41c1.86,0,3.41,1.13,3.41,2.93a2.9,2.9,0,0,1-1.65,2.49v0a3,3,0,0,1,1.94,2.61c0,1.81-1.47,3.12-3.68,3.12a4.15,4.15,0,0,1-3.33-1.42A.32.32,0,0,1,16.39,32.65Z"/><path class="e" d="M25.29,23.41a.3.3,0,0,1,.29-.3h3.79a5.6,5.6,0,1,1,0,11.2H25.58a.3.3,0,0,1-.29-.3Zm3.89,9a3.66,3.66,0,0,0,0-7.32H27.35v7.32Z"/><path class="e" d="M38,28.73v-.05a3,3,0,0,1-1.65-2.48c0-1.78,1.54-2.93,3.47-2.93s3.54,1.15,3.54,2.93a3.07,3.07,0,0,1-1.65,2.46v.07a3.27,3.27,0,0,1,1.94,2.67c0,1.74-1.47,3.07-3.83,3.07s-3.76-1.33-3.76-3.07C36.07,30,37.56,29,38,28.73Zm1.86,4.11a1.55,1.55,0,0,0,1.66-1.47,1.89,1.89,0,0,0-1.66-1.7,1.9,1.9,0,0,0-1.67,1.7A1.57,1.57,0,0,0,39.87,32.84Zm1.45-6.56a1.46,1.46,0,0,0-2.91,0c0,.72.45,1.28,1.46,1.52C40.86,27.57,41.32,27,41.32,26.28Z"/></svg>