<svg xmlns="http://www.w3.org/2000/svg" xmlns:xlink="http://www.w3.org/1999/xlink" viewBox="0 0 60 60"><defs><style>.a{fill:#fff;}.b,.d{stroke-miterlimit:10;}.b{stroke-width:0.39px;fill:url(#a);stroke:url(#b);}.c{fill:url(#c);}.d{fill:none;stroke-width:0.41px;stroke:url(#d);}.e{fill:#15b0a5;}</style><linearGradient id="a" x1="29.47" y1="26.17" x2="20.56" y2="-76.57" gradientUnits="userSpaceOnUse"><stop offset="0" stop-color="#fff"/><stop offset="0.37" stop-color="#eaeaea"/><stop offset="1" stop-color="#b3b3b3"/></linearGradient><linearGradient id="b" x1="0.31" y1="30.03" x2="59.3" y2="30.03" gradientUnits="userSpaceOnUse"><stop offset="0" stop-color="#fff"/><stop offset="1" stop-color="#f2f2f2"/></linearGradient><linearGradient id="c" x1="-4364.27" y1="-2198.43" x2="-4414.54" y2="-2198.43" gradientTransform="translate(-4359.5 -2168.5) rotate(180)" gradientUnits="userSpaceOnUse"><stop offset="0" stop-color="#fff"/><stop offset="0.27" stop-color="#f6f6f6"/><stop offset="0.71" stop-color="#dfdfdf"/><stop offset="1" stop-color="#ccc"/></linearGradient><linearGradient id="d" x1="17.23" y1="7.98" x2="42.57" y2="51.87" gradientUnits="userSpaceOnUse"><stop offset="0" stop-color="#e7e6e6"/><stop offset="0.63" stop-color="#cdcccc"/></linearGradient></defs><title>Bouton</title><rect class="a" x="-0.8" y="-0.33" width="61.24" height="60.95"/><circle class="b" cx="29.8" cy="30.03" r="29.3"/><circle class="c" cx="29.9" cy="29.93" r="25.13"/><circle class="d" cx="29.9" cy="29.93" r="25.13"/><path class="e" d="M5.64,31.73V30.4l5.76-7a.34.34,0,0,1,.24-.1h.87a.3.3,0,0,1,.3.3v6.82h1.28a.3.3,0,0,1,.31.29v1a.31.31,0,0,1-.31.31H12.81l0,2a.32.32,0,0,1-.31.3H11.2a.32.32,0,0,1-.31-.3V32H6A.3.3,0,0,1,5.64,31.73ZM11,30.37V26.52L7.75,30.37Z"/><path class="e" d="M16.07,23.45a.3.3,0,0,1,.29-.3h3.8a5.6,5.6,0,1,1,0,11.2h-3.8a.3.3,0,0,1-.29-.3Zm3.89,9a3.66,3.66,0,0,0,0-7.32H18.14V32.4Z"/><path class="e" d="M28.36,26.38l-1.41.3a.27.27,0,0,1-.32-.2l-.09-.79a.31.31,0,0,1,.08-.29l2.3-1.93H30a.3.3,0,0,1,.29.3V34.05a.3.3,0,0,1-.29.3H28.67a.3.3,0,0,1-.31-.3Z"/><path class="e" d="M32.42,28.91c0-3.51,1.48-5.6,4-5.6s4,2.09,4,5.6-1.47,5.6-4,5.6S32.42,32.41,32.42,28.91Zm6,0c0-2.37-.71-3.71-1.94-3.71s-1.94,1.34-1.94,3.71.71,3.71,1.94,3.71S38.4,31.29,38.4,28.91Z"/><path class="e" d="M42.12,28.91c0-3.51,1.47-5.6,4-5.6s4,2.09,4,5.6-1.47,5.6-4,5.6S42.12,32.41,42.12,28.91Zm6,0c0-2.37-.7-3.71-1.93-3.71s-1.94,1.34-1.94,3.71.7,3.71,1.94,3.71S48.09,31.29,48.09,28.91Z"/></svg>