<svg xmlns="http://www.w3.org/2000/svg" xmlns:xlink="http://www.w3.org/1999/xlink" viewBox="0 0 60 60"><defs><style>.a{fill:#fff;}.b,.d{stroke-miterlimit:10;}.b{stroke-width:0.39px;fill:url(#a);stroke:url(#b);}.c{fill:url(#c);}.d{fill:none;stroke-width:0.41px;stroke:url(#d);}.e{fill:#15b0a5;}</style><linearGradient id="a" x1="29.47" y1="26.17" x2="20.56" y2="-76.57" gradientUnits="userSpaceOnUse"><stop offset="0" stop-color="#fff"/><stop offset="0.37" stop-color="#eaeaea"/><stop offset="1" stop-color="#b3b3b3"/></linearGradient><linearGradient id="b" x1="0.31" y1="30.03" x2="59.3" y2="30.03" gradientUnits="userSpaceOnUse"><stop offset="0" stop-color="#fff"/><stop offset="1" stop-color="#f2f2f2"/></linearGradient><linearGradient id="c" x1="-4364.33" y1="-1558.42" x2="-4414.47" y2="-1558.42" gradientTransform="translate(-4359.5 -1528.5) rotate(180)" gradientUnits="userSpaceOnUse"><stop offset="0" stop-color="#fff"/><stop offset="0.27" stop-color="#f6f6f6"/><stop offset="0.71" stop-color="#dfdfdf"/><stop offset="1" stop-color="#ccc"/></linearGradient><linearGradient id="d" x1="17.26" y1="8.03" x2="42.54" y2="51.81" gradientUnits="userSpaceOnUse"><stop offset="0" stop-color="#e7e6e6"/><stop offset="0.63" stop-color="#cdcccc"/></linearGradient></defs><title>Bouton OKfinal</title><rect class="a" x="-0.8" y="-0.33" width="61.24" height="60.95"/><circle class="b" cx="29.8" cy="30.03" r="29.3"/><circle class="c" cx="29.9" cy="29.92" r="25.07"/><circle class="d" cx="29.9" cy="29.92" r="25.07"/><path class="e" d="M13.15,31.69V30.36l5.77-7a.3.3,0,0,1,.24-.1H20a.3.3,0,0,1,.3.31v6.82H21.6a.29.29,0,0,1,.31.28v1a.3.3,0,0,1-.31.3H20.32l0,2a.31.31,0,0,1-.3.3H18.71a.32.32,0,0,1-.31-.3V32H13.46A.3.3,0,0,1,13.15,31.69Zm5.32-1.36V26.49l-3.2,3.84Z"/><path class="e" d="M23.59,23.41a.29.29,0,0,1,.28-.3h3.8a5.6,5.6,0,1,1,0,11.2h-3.8a.29.29,0,0,1-.28-.3Zm3.89,9a3.66,3.66,0,0,0,0-7.32H25.65v7.32Z"/><path class="e" d="M35.87,26.34l-1.41.31a.26.26,0,0,1-.31-.21l-.1-.79a.34.34,0,0,1,.08-.29l2.3-1.93h1.12a.3.3,0,0,1,.29.3V34a.3.3,0,0,1-.29.3H36.18a.3.3,0,0,1-.31-.3Z"/><path class="e" d="M39.5,33.64c1.06-1.28,3.08-3.91,4.15-5.33a3,3,0,0,0,.82-1.78,1.51,1.51,0,0,0-1.7-1.45A2.61,2.61,0,0,0,41,26a.29.29,0,0,1-.43,0l-.77-.77a.31.31,0,0,1,0-.41,4.44,4.44,0,0,1,3.16-1.57c2.28,0,3.56,1.45,3.56,3.18a4.26,4.26,0,0,1-1.07,2.6c-.69,1-1.9,2.48-2.75,3.55h3.46a.31.31,0,0,1,.3.3V34a.31.31,0,0,1-.3.3H39.81a.3.3,0,0,1-.31-.3Z"/></svg>