<svg xmlns="http://www.w3.org/2000/svg" xmlns:xlink="http://www.w3.org/1999/xlink" viewBox="0 0 60 60"><defs><style>.a{fill:#fff;}.b,.d{stroke-miterlimit:10;}.b{stroke-width:0.39px;fill:url(#a);stroke:url(#b);}.c{fill:url(#c);}.d{fill:none;stroke-width:0.39px;stroke:url(#d);}.e{fill:#164721;}</style><linearGradient id="a" x1="29.47" y1="26.17" x2="20.56" y2="-76.57" gradientUnits="userSpaceOnUse"><stop offset="0" stop-color="#fff"/><stop offset="0.37" stop-color="#eaeaea"/><stop offset="1" stop-color="#b3b3b3"/></linearGradient><linearGradient id="b" x1="0.31" y1="30.03" x2="59.3" y2="30.03" gradientUnits="userSpaceOnUse"><stop offset="0" stop-color="#fff"/><stop offset="1" stop-color="#f2f2f2"/></linearGradient><linearGradient id="c" x1="-4365.52" y1="-118.43" x2="-4413.27" y2="-118.43" gradientTransform="translate(-4359.5 -88.5) rotate(180)" gradientUnits="userSpaceOnUse"><stop offset="0" stop-color="#fff"/><stop offset="0.27" stop-color="#f6f6f6"/><stop offset="0.71" stop-color="#dfdfdf"/><stop offset="1" stop-color="#ccc"/></linearGradient><linearGradient id="d" x1="17.86" y1="9.08" x2="41.93" y2="50.78" gradientUnits="userSpaceOnUse"><stop offset="0" stop-color="#e7e6e6"/><stop offset="0.63" stop-color="#cdcccc"/></linearGradient></defs><title>Bouton OKfinal</title><rect class="a" x="-0.8" y="-0.33" width="61.24" height="60.95"/><circle class="b" cx="29.8" cy="30.03" r="29.3"/><circle class="c" cx="29.9" cy="29.93" r="23.88"/><circle class="d" cx="29.9" cy="29.93" r="23.88"/><path class="e" d="M15.22,31.69V30.36l5.76-7a.34.34,0,0,1,.24-.1h.86a.31.31,0,0,1,.31.31v6.82h1.28a.28.28,0,0,1,.3.28v1a.3.3,0,0,1-.3.3H22.39v2a.31.31,0,0,1-.3.3H20.77a.31.31,0,0,1-.3-.3V32H15.52A.3.3,0,0,1,15.22,31.69Zm5.31-1.36V26.49l-3.2,3.84Z"/><path class="e" d="M25.65,23.41a.3.3,0,0,1,.29-.3h3.79a5.6,5.6,0,1,1,0,11.2H25.94a.3.3,0,0,1-.29-.3Zm3.89,9a3.66,3.66,0,0,0,0-7.32H27.71v7.32Z"/><path class="e" d="M35.94,31.69V30.36l5.76-7a.34.34,0,0,1,.24-.1h.86a.31.31,0,0,1,.31.31v6.82h1.28a.28.28,0,0,1,.3.28v1a.3.3,0,0,1-.3.3H43.11v2a.31.31,0,0,1-.3.3H41.49a.31.31,0,0,1-.3-.3V32H36.24A.29.29,0,0,1,35.94,31.69Zm5.31-1.36V26.49l-3.2,3.84Z"/></svg>