<svg xmlns="http://www.w3.org/2000/svg" xmlns:xlink="http://www.w3.org/1999/xlink" viewBox="0 0 60 60"><defs><style>.a{fill:#fff;}.b,.d{stroke-miterlimit:10;}.b{stroke-width:0.39px;fill:url(#a);stroke:url(#b);}.c{fill:url(#c);}.d{fill:none;stroke-width:0.39px;stroke:url(#d);}.e{fill:#460d21;}</style><linearGradient id="a" x1="29.47" y1="26.17" x2="20.56" y2="-76.57" gradientUnits="userSpaceOnUse"><stop offset="0" stop-color="#fff"/><stop offset="0.37" stop-color="#eaeaea"/><stop offset="1" stop-color="#b3b3b3"/></linearGradient><linearGradient id="b" x1="0.31" y1="30.03" x2="59.3" y2="30.03" gradientUnits="userSpaceOnUse"><stop offset="0" stop-color="#fff"/><stop offset="1" stop-color="#f2f2f2"/></linearGradient><linearGradient id="c" x1="-4365.52" y1="-438.43" x2="-4413.27" y2="-438.43" gradientTransform="translate(-4359.5 -408.5) rotate(180)" gradientUnits="userSpaceOnUse"><stop offset="0" stop-color="#fff"/><stop offset="0.27" stop-color="#f6f6f6"/><stop offset="0.71" stop-color="#dfdfdf"/><stop offset="1" stop-color="#ccc"/></linearGradient><linearGradient id="d" x1="17.86" y1="9.08" x2="41.93" y2="50.78" gradientUnits="userSpaceOnUse"><stop offset="0" stop-color="#e7e6e6"/><stop offset="0.63" stop-color="#cdcccc"/></linearGradient></defs><title>Bouton OKfinal</title><rect class="a" x="-0.8" y="-0.33" width="61.24" height="60.95"/><circle class="b" cx="29.8" cy="30.03" r="29.3"/><circle class="c" cx="29.9" cy="29.93" r="23.88"/><circle class="d" cx="29.9" cy="29.93" r="23.88"/><path class="e" d="M15.68,31.69V30.36l5.76-7a.34.34,0,0,1,.24-.1h.87a.3.3,0,0,1,.3.31v6.82h1.28a.29.29,0,0,1,.31.28v1a.3.3,0,0,1-.31.3H22.85l0,2a.32.32,0,0,1-.31.3H21.24a.32.32,0,0,1-.31-.3V32H16A.3.3,0,0,1,15.68,31.69ZM21,30.33V26.49l-3.21,3.84Z"/><path class="e" d="M26.11,23.41a.3.3,0,0,1,.29-.3h3.8a5.6,5.6,0,1,1,0,11.2H26.4a.3.3,0,0,1-.29-.3Zm3.89,9A3.66,3.66,0,0,0,30,25H28.18v7.32Z"/><path class="e" d="M42.16,23.08a.32.32,0,0,1,.45.22l.37.94c.08.2,0,.37-.29.47-.75.24-3,1.31-3.52,3.07A4.26,4.26,0,0,1,41,27.33a3.28,3.28,0,0,1,3.27,3.48,3.67,3.67,0,0,1-3.62,3.66c-2.51,0-3.81-2-3.81-4.42C36.83,25.38,40.79,23.52,42.16,23.08Zm.29,7.69a1.86,1.86,0,0,0-1.84-1.87,2,2,0,0,0-1.86,1.39c0,1.09.58,2.36,1.88,2.36A1.87,1.87,0,0,0,42.45,30.77Z"/></svg>