<svg xmlns="http://www.w3.org/2000/svg" xmlns:xlink="http://www.w3.org/1999/xlink" viewBox="0 0 60 60"><defs><style>.a{fill:#fff;}.b,.d{stroke-miterlimit:10;}.b{stroke-width:0.39px;fill:url(#a);stroke:url(#b);}.c{fill:url(#c);}.d{fill:none;stroke-width:0.39px;stroke:url(#d);}.e{fill:#311b44;}</style><linearGradient id="a" x1="29.47" y1="26.17" x2="20.56" y2="-76.57" gradientUnits="userSpaceOnUse"><stop offset="0" stop-color="#fff"/><stop offset="0.37" stop-color="#eaeaea"/><stop offset="1" stop-color="#b3b3b3"/></linearGradient><linearGradient id="b" x1="0.31" y1="30.03" x2="59.3" y2="30.03" gradientUnits="userSpaceOnUse"><stop offset="0" stop-color="#fff"/><stop offset="1" stop-color="#f2f2f2"/></linearGradient><linearGradient id="c" x1="-4365.52" y1="-758.43" x2="-4413.27" y2="-758.43" gradientTransform="translate(-4359.5 -728.5) rotate(180)" gradientUnits="userSpaceOnUse"><stop offset="0" stop-color="#fff"/><stop offset="0.27" stop-color="#f6f6f6"/><stop offset="0.71" stop-color="#dfdfdf"/><stop offset="1" stop-color="#ccc"/></linearGradient><linearGradient id="d" x1="17.86" y1="9.08" x2="41.93" y2="50.78" gradientUnits="userSpaceOnUse"><stop offset="0" stop-color="#e7e6e6"/><stop offset="0.63" stop-color="#cdcccc"/></linearGradient></defs><title>Bouton OKfinal</title><rect class="a" x="-0.8" y="-0.33" width="61.24" height="60.95"/><circle class="b" cx="29.8" cy="30.03" r="29.3"/><circle class="c" cx="29.9" cy="29.93" r="23.88"/><circle class="d" cx="29.9" cy="29.93" r="23.88"/><path class="e" d="M15.46,31.69V30.36l5.76-7a.34.34,0,0,1,.24-.1h.86a.31.31,0,0,1,.31.31v6.82h1.28a.28.28,0,0,1,.3.28v1a.3.3,0,0,1-.3.3H22.63v2a.31.31,0,0,1-.3.3H21a.31.31,0,0,1-.3-.3V32h-5A.3.3,0,0,1,15.46,31.69Zm5.31-1.36V26.49l-3.2,3.84Z"/><path class="e" d="M25.89,23.41a.3.3,0,0,1,.29-.3H30a5.6,5.6,0,1,1,0,11.2H26.18a.3.3,0,0,1-.29-.3Zm3.89,9a3.66,3.66,0,0,0,0-7.32H28v7.32Z"/><path class="e" d="M38.61,28.73v-.05A3,3,0,0,1,37,26.2c0-1.78,1.54-2.93,3.47-2.93S44,24.42,44,26.2a3.07,3.07,0,0,1-1.65,2.46v.07a3.27,3.27,0,0,1,1.94,2.67c0,1.74-1.47,3.07-3.83,3.07s-3.76-1.33-3.76-3.07C36.67,30,38.16,29,38.61,28.73Zm1.86,4.11a1.55,1.55,0,0,0,1.66-1.47,1.89,1.89,0,0,0-1.66-1.7,1.9,1.9,0,0,0-1.67,1.7A1.57,1.57,0,0,0,40.47,32.84Zm1.45-6.56a1.46,1.46,0,0,0-2.91,0c0,.72.45,1.28,1.46,1.52C41.46,27.57,41.92,27,41.92,26.28Z"/></svg>